# xmcd
#
# Track frame offsets:
#	183
#	13600
#	27328
#	40715
#	52645
#	66563
#	76760
#	90400
#	102125
#	113483
#	127093
#	138485
#	152633
#	166350
#	179865
#	193283
#	205895
#	219500
#	231688
#	244250
#	257560
#	270868
#	283165
#	294253
#
# Disc length: 4081 seconds
#
# Revision: 0
# Processed by: cddbd v1.4PL0 Copyright (c) Steve Scherf et al.
# Submitted via: dBpowerAMP V4.0
#
DISCID=590fef18
DTITLE=Varios - Blow It Till You Like It: Memphis Harmonica 1951-1954
DYEAR=1900
DGENRE=Blues
TTITLE0=Walter Horton - Grandmother Got Grandfather Told  
TTITLE1=Walter Horton - In the Mood 
TTITLE2=Walter Horton - We All Gotta Go Sometime  
TTITLE3=Walter Horton - Little Walter's Boogie (Take 1)     
TTITLE4=Walter Horton - West Winds Are Blowing (Take 2)   
TTITLE5=Walter Horton - Off the Wall
TTITLE6=Houston Boines - Cryin' in the Courthouse  
TTITLE7=Hot Shot Love - Wolf Call Boogie  
TTITLE8=Hot Shot Love - Harmonica Jam  
TTITLE9=Hot Shot Love - Wolf Call Bookie   
TTITLE10=Hot Shot Love - Harpin' on It     
TTITLE11=Joe Hill Louis - Keep Your Arms Around Me 
TTITLE12=Joe Hill Louis - Got Me a New Woman  
TTITLE13=Joe Hill Louis - Sweetest Gal in Town 
TTITLE14=Joe Hill Louis - I'm a Poor Boy  
TTITLE15=Woodrow Adams - Train Time   
TTITLE16=Willie Nix - Midnight Showers of Rain      
TTITLE17=Willie Nix - Prison Bound Blues 
TTITLE18=Willie Nix - Baker Shop Boogie    
TTITLE19=Doctor Ross - Country Clown  
TTITLE20=Doctor Ross - Polly Put the Kettle On     
TTITLE21=Doctor Ross - Jukebox Boogie 
TTITLE22=Doctor Ross - Feel So Sad 
TTITLE23=Doctor Ross - Boogie Disease
EXTD=
EXTT0=
EXTT1=
EXTT2=
EXTT3=
EXTT4=
EXTT5=
EXTT6=
EXTT7=
EXTT8=
EXTT9=
EXTT10=
EXTT11=
EXTT12=
EXTT13=
EXTT14=
EXTT15=
EXTT16=
EXTT17=
EXTT18=
EXTT19=
EXTT20=
EXTT21=
EXTT22=
EXTT23=
PLAYORDER=
